<svg width="24" height="24" viewBox="0 0 24 24" fill="none" xmlns="http://www.w3.org/2000/svg">
<rect x="10.3564" y="15.8809" width="1.04348" height="1.04348" fill="black"/>
<path fill-rule="evenodd" clip-rule="evenodd" d="M13.2783 7.32369C11.713 6.48891 9.10435 7.53239 9 7.53239L9.41739 8.57587C10.0435 8.36717 11.9217 7.74108 12.8609 8.36717C13.1739 8.57587 13.3826 8.88891 13.487 9.3063C13.6957 10.4541 11.8174 12.3324 10.5652 13.1672L10.3565 13.2715V14.8367H11.4V13.7933C12.2348 13.1672 14.9478 10.9759 14.5304 8.99326C14.3217 8.26282 14.0087 7.74108 13.2783 7.32369Z" fill="black"/>
<path fill-rule="evenodd" clip-rule="evenodd" d="M0 12C0 5.42609 5.42609 0 12 0C18.5739 0 24 5.42609 24 12C24 18.5739 18.5739 24 12 24C5.42609 24 0 18.5739 0 12ZM1.04348 12C1.04348 18.0522 5.94783 22.9565 12 22.9565C18.0522 22.9565 22.9565 18.0522 22.9565 12C22.9565 5.94783 18.0522 1.04348 12 1.04348C5.94783 1.04348 1.04348 5.94783 1.04348 12Z" fill="black"/>
</svg>
