<svg width="21" height="20" viewBox="0 0 21 20" fill="none" xmlns="http://www.w3.org/2000/svg">
<path d="M12.1522 16.2513V16.668H12.3258L12.4481 16.5446L12.1522 16.2513ZM16.2826 12.0846L16.5785 12.378L16.6993 12.2562V12.0846H16.2826ZM12.1522 12.0846V11.668H11.7355V12.0846H12.1522ZM5.12681 16.2513V18.7513H5.96014V16.2513H5.12681ZM5.12681 18.7513C5.12681 19.0949 5.24207 19.4141 5.47474 19.6488C5.70773 19.8838 6.02595 20.0013 6.36957 20.0013V19.168C6.21753 19.168 6.1227 19.1188 6.06656 19.0621C6.0101 19.0052 5.96014 18.9077 5.96014 18.7513H5.12681ZM6.36957 20.0013H18.7609V19.168H6.36957V20.0013ZM18.7609 20.0013C19.1045 20.0013 19.4227 19.8838 19.6557 19.6488C19.8884 19.4141 20.0036 19.0949 20.0036 18.7513H19.1703C19.1703 18.9077 19.1203 19.0052 19.0639 19.0621C19.0077 19.1188 18.9129 19.168 18.7609 19.168V20.0013ZM20.0036 18.7513V5.0013H19.1703V18.7513H20.0036ZM0.996377 2.5013V15.418H1.82971V2.5013H0.996377ZM0.996377 15.418C0.996377 16.0337 1.48346 16.668 2.23913 16.668V15.8346C2.0035 15.8346 1.82971 15.6356 1.82971 15.418H0.996377ZM2.23913 16.668H12.1522V15.8346H2.23913V16.668ZM12.4481 16.5446L16.5785 12.378L15.9867 11.7913L11.8563 15.958L12.4481 16.5446ZM16.6993 12.0846V2.5013H15.8659V12.0846H16.6993ZM16.2826 11.668H12.1522V12.5013H16.2826V11.668ZM11.7355 12.0846V16.2513H12.5688V12.0846H11.7355ZM1 0.834635H16.6957V0.00130209H1V0.834635Z" fill="black"/>
<path fill-rule="evenodd" clip-rule="evenodd" d="M6.03947 4.5L4.30469 4.91667V5.58333L5.79164 5.25V9.33333H4.30469V10H8.02208V9.33333H6.53512V4.5H6.03947ZM9.01338 9.08333V9.75L9.01339 9.75C9.59165 9.91667 10.1699 10.0833 10.8308 10.0833C12.5656 10.0833 13.309 9.33333 13.309 8.41667C13.309 7.08333 11.4916 6.75 9.92208 6.66667L10.0047 5.16667H13.0612V4.5H9.34382L9.1786 7.25C10.3351 7.25 12.5656 7.41667 12.5656 8.41667C12.5656 9 12.0699 9.41667 10.9134 9.41667L10.9134 9.41667C10.2525 9.33333 9.59164 9.25 9.01338 9.08333Z" fill="black"/>
</svg>
