<svg width="48" height="48" viewBox="0 0 48 48" fill="none" xmlns="http://www.w3.org/2000/svg">
<path fill-rule="evenodd" clip-rule="evenodd" d="M24 48C37.2548 48 48 37.2548 48 24C48 10.7452 37.2548 0 24 0C10.7452 0 0 10.7452 0 24C0 37.2548 10.7452 48 24 48Z" fill="#BB0A30"/>
<path d="M12 12V11.6471H11.6471V12H12ZM36 36V36.3529H36.3529V36H36ZM24 24H24.3529V23.6471H24V24ZM24 24H24.3529V23.6471H24V24ZM24 24H23.6471V24.3529H24V24ZM24 24H23.6471V24.3529H24V24ZM30 30V30.3529H30.8521L30.2496 29.7504L30 30ZM24 24L24.2496 23.7504L24 23.5009L23.7504 23.7504L24 24ZM18 30L17.7504 29.7504L17.1479 30.3529H18V30ZM30.3529 19.3333L30.6923 19.2364L30.3529 19.3333ZM27.1543 23.2114L27.2399 23.5538L27.1543 23.2114ZM24 24L23.6756 23.861L23.3953 24.515L24.0856 24.3424L24 24ZM25.1055 21.4205L25.4299 21.5596L25.1055 21.4205ZM18.6275 18.3529L18.5305 18.0136V18.0136L18.6275 18.3529ZM22.8945 21.4205L23.2189 21.2815L22.8945 21.4205ZM24 24L23.9144 24.3424L24.6047 24.515L24.3244 23.861L24 24ZM20.8457 23.2114L20.7601 23.5538L20.8457 23.2114ZM12 12.3529H34.5882V11.6471H12V12.3529ZM34.5882 12.3529C35.173 12.3529 35.6471 12.827 35.6471 13.4118H36.3529C36.3529 12.4371 35.5629 11.6471 34.5882 11.6471V12.3529ZM35.6471 13.4118V36H36.3529V13.4118H35.6471ZM36 35.6471H13.4118V36.3529H36V35.6471ZM13.4118 35.6471C12.827 35.6471 12.3529 35.173 12.3529 34.5882H11.6471C11.6471 35.5629 12.4371 36.3529 13.4118 36.3529V35.6471ZM12.3529 34.5882V12H11.6471V34.5882H12.3529ZM23.6471 24V36H24.3529V24H23.6471ZM24.3529 36V24H23.6471V36H24.3529ZM24 23.6471H12V24.3529H24V23.6471ZM12 24.3529H24V23.6471H12V24.3529ZM24.3529 24V12H23.6471V24H24.3529ZM23.6471 12V24H24.3529V12H23.6471ZM24 24.3529H36V23.6471H24V24.3529ZM36 23.6471H24V24.3529H36V23.6471ZM30.2496 29.7504L24.2496 23.7504L23.7504 24.2496L29.7504 30.2496L30.2496 29.7504ZM23.7504 23.7504L17.7504 29.7504L18.2496 30.2496L24.2496 24.2496L23.7504 23.7504ZM18 30.3529H30V29.6471H18V30.3529ZM28.6852 18.6923C29.2558 18.5293 29.8505 18.8597 30.0136 19.4303L30.6923 19.2364C30.4222 18.2909 29.4367 17.7434 28.4913 18.0136L28.6852 18.6923ZM30.0136 19.4303C30.0687 19.6232 30.0687 19.8277 30.0136 20.0207L30.6923 20.2146C30.7836 19.8949 30.7836 19.5561 30.6923 19.2364L30.0136 19.4303ZM30.0136 20.0207C29.6115 21.4281 28.4888 22.514 27.0687 22.869L27.2399 23.5538C28.9047 23.1376 30.2209 21.8646 30.6923 20.2146L30.0136 20.0207ZM27.0687 22.869L23.9144 23.6576L24.0856 24.3424L27.2399 23.5538L27.0687 22.869ZM24.3244 24.139L25.4299 21.5596L24.7811 21.2815L23.6756 23.861L24.3244 24.139ZM25.4299 21.5596C26.0285 20.1628 27.2241 19.1098 28.6852 18.6923L28.4913 18.0136C26.826 18.4894 25.4633 19.6896 24.7811 21.2815L25.4299 21.5596ZM17.9864 20.0207C17.8234 19.4501 18.1538 18.8553 18.7244 18.6923L18.5305 18.0136C17.585 18.2837 17.0376 19.2691 17.3077 20.2146L17.9864 20.0207ZM18.7244 18.6923C18.9173 18.6372 19.1219 18.6372 19.3148 18.6923L19.5087 18.0136C19.189 17.9222 18.8502 17.9222 18.5305 18.0136L18.7244 18.6923ZM19.3148 18.6923C20.7759 19.1098 21.9715 20.1628 22.5701 21.5596L23.2189 21.2815C22.5367 19.6896 21.174 18.4894 19.5087 18.0136L19.3148 18.6923ZM22.5701 21.5596L23.6756 24.139L24.3244 23.861L23.2189 21.2815L22.5701 21.5596ZM24.0856 23.6576L20.9313 22.869L20.7601 23.5538L23.9144 24.3424L24.0856 23.6576ZM20.9313 22.869C19.5112 22.514 18.3885 21.4281 17.9864 20.0207L17.3077 20.2146C17.7791 21.8646 19.0953 23.1376 20.7601 23.5538L20.9313 22.869Z" fill="white"/>
</svg>
