<svg width="48" height="48" viewBox="0 0 48 48" fill="none" xmlns="http://www.w3.org/2000/svg">
<path fill-rule="evenodd" clip-rule="evenodd" d="M24 48C37.2548 48 48 37.2548 48 24C48 10.7452 37.2548 0 24 0C10.7452 0 0 10.7452 0 24C0 37.2548 10.7452 48 24 48Z" fill="#1A1A1A"/>
<path d="M32.5501 34.3317L32.4384 34.6227L33.0307 34.85L32.8486 34.2423L32.5501 34.3317ZM29.1464 33.0254L29.258 32.7344L29.04 32.6507L28.8984 32.8365L29.1464 33.0254ZM26.9885 35.8583L26.6899 35.9478L26.8655 36.5341L27.2364 36.0472L26.9885 35.8583ZM24.7183 28.2795L24.6929 27.9688L24.3092 28.0001L24.4197 28.3689L24.7183 28.2795ZM30.0136 25.864L30.3122 25.7746L30.1631 25.2768L29.7941 25.6427L30.0136 25.864ZM21.0118 35.8583L20.764 36.0474L21.1349 36.5334L21.3104 35.9478L21.0118 35.8583ZM18.8484 33.0239L19.0962 32.8348L18.9545 32.6491L18.7365 32.733L18.8484 33.0239ZM15.4502 34.3317L15.1516 34.2423L14.9693 34.8508L15.5621 34.6226L15.4502 34.3317ZM22.9073 23.5701L22.6944 23.7978L22.9372 24.0248L23.1481 23.768L22.9073 23.5701ZM32.6617 34.0407L29.258 32.7344L29.0347 33.3164L32.4384 34.6227L32.6617 34.0407ZM28.8984 32.8365L26.7405 35.6695L27.2364 36.0472L29.3943 33.2142L28.8984 32.8365ZM27.2871 35.7689L25.0168 28.19L24.4197 28.3689L26.6899 35.9478L27.2871 35.7689ZM24.7436 28.5901C26.8913 28.4152 28.8174 27.4892 30.2331 26.0854L29.7941 25.6427C28.4815 26.9444 26.6924 27.8059 24.6929 27.9688L24.7436 28.5901ZM29.715 25.9535L32.2515 34.4212L32.8486 34.2423L30.3122 25.7746L29.715 25.9535ZM22.9834 28.19L20.7132 35.7689L21.3104 35.9478L23.5806 28.3689L22.9834 28.19ZM21.2595 35.6692L19.0962 32.8348L18.6007 33.213L20.764 36.0474L21.2595 35.6692ZM18.7365 32.733L15.3382 34.0408L15.5621 34.6226L18.9604 33.3148L18.7365 32.733ZM15.7488 34.4212L18.2852 25.9535L17.6881 25.7746L15.1516 34.2423L15.7488 34.4212ZM24.0001 28.6203C28.7748 28.6203 32.669 24.9117 32.669 20.3086H32.0456C32.0456 24.542 28.4565 27.9969 24.0001 27.9969V28.6203ZM32.669 20.3086C32.669 15.7055 28.7748 11.9969 24.0001 11.9969V12.6203C28.4565 12.6203 32.0456 16.0751 32.0456 20.3086H32.669ZM24.0001 11.9969C19.2254 11.9969 15.3313 15.7055 15.3313 20.3086H15.9547C15.9547 16.0751 19.5438 12.6203 24.0001 12.6203V11.9969ZM15.3313 20.3086C15.3313 24.9117 19.2254 28.6203 24.0001 28.6203V27.9969C19.5438 27.9969 15.9547 24.542 15.9547 20.3086H15.3313ZM19.9301 21.2132L22.6944 23.7978L23.1201 23.3425L20.3559 20.7578L19.9301 21.2132ZM23.1481 23.768L28.3553 17.4295L27.8736 17.0338L22.6664 23.3723L23.1481 23.768Z" fill="white"/>
</svg>
