<svg width="30" height="22" viewBox="0 0 30 22" fill="none" xmlns="http://www.w3.org/2000/svg">
<path fill-rule="evenodd" clip-rule="evenodd" d="M28.5 1.5C29.4 2.4 29.7 4.5 29.7 4.5C29.7 4.5 30 6.9 30 9.3V11.6C30 14.1 29.7 16.5 29.7 16.5C29.7 16.5 29.4 18.6 28.5 19.5C27.5461 20.5406 26.4418 20.6788 25.774 20.7624C25.6717 20.7752 25.5797 20.7867 25.5 20.8C21.3 21.1 15 21.1 15 21.1C15 21.1 7.2 21 4.8 20.8C4.70869 20.787 4.60378 20.7756 4.48792 20.7631C3.7155 20.6796 2.45652 20.5435 1.5 19.5C0.6 18.6 0.3 16.5 0.3 16.5C0.3 16.5 0 14.1 0 11.7V9.4C0 6.9 0.3 4.6 0.3 4.6C0.3 4.6 0.6 2.5 1.5 1.6C2.45392 0.559363 3.55824 0.421164 4.22603 0.337595C4.32829 0.324797 4.42032 0.31328 4.5 0.3C8.7 0 15 0 15 0C15 0 21.3 0 25.5 0.2C25.5797 0.21328 25.6717 0.224797 25.774 0.237595C26.4418 0.321164 27.5461 0.459363 28.5 1.5ZM20 10.2L11.9 6V14.4L20 10.2Z" fill="white"/>
</svg>
