<svg width="16" height="16" viewBox="0 0 16 16" fill="none" xmlns="http://www.w3.org/2000/svg">
<rect x="6.9043" y="10.3281" width="0.695652" height="0.626087" fill="black"/>
<path fill-rule="evenodd" clip-rule="evenodd" d="M8.85217 5.19421C7.8087 4.69335 6.06957 5.31943 6 5.31943L6.27826 5.94552C6.69565 5.8203 7.94783 5.44465 8.57391 5.8203C8.78261 5.94552 8.92174 6.13335 8.9913 6.38378C9.13043 7.07248 7.87826 8.19943 7.04348 8.7003L6.90435 8.76291V9.70204H7.6V9.07595C8.15652 8.7003 9.96522 7.38552 9.68696 6.19595C9.54783 5.75769 9.33913 5.44465 8.85217 5.19421Z" fill="black"/>
<path fill-rule="evenodd" clip-rule="evenodd" d="M0 8C0 3.61739 3.61739 0 8 0C12.3826 0 16 3.61739 16 8C16 12.3826 12.3826 16 8 16C3.61739 16 0 12.3826 0 8ZM0.695652 8C0.695652 12.0348 3.96522 15.3043 8 15.3043C12.0348 15.3043 15.3043 12.0348 15.3043 8C15.3043 3.96522 12.0348 0.695652 8 0.695652C3.96522 0.695652 0.695652 3.96522 0.695652 8Z" fill="black"/>
</svg>
