<svg width="14" height="20" viewBox="0 0 14 20" fill="none" xmlns="http://www.w3.org/2000/svg">
<path fill-rule="evenodd" clip-rule="evenodd" d="M0 20V0H14V20H8V15H6V20H0ZM9 19H13V1H1V19H5V14H9V19Z" fill="black"/>
<path fill-rule="evenodd" clip-rule="evenodd" d="M8 3H11V6H8V3ZM9 5H10V4H9V5Z" fill="black"/>
<path fill-rule="evenodd" clip-rule="evenodd" d="M8 9H11V12H8V9ZM9 11H10V10H9V11Z" fill="black"/>
<path fill-rule="evenodd" clip-rule="evenodd" d="M3 9H6V12H3V9ZM4 11H5V10H4V11Z" fill="black"/>
<path fill-rule="evenodd" clip-rule="evenodd" d="M3 3H6V6H3V3ZM4 5H5V4H4V5Z" fill="black"/>
</svg>
