<svg width="24" height="24" viewBox="0 0 24 24" fill="none" xmlns="http://www.w3.org/2000/svg">
<rect opacity="0.01" width="24" height="24" fill="#D8D8D8"/>
<path d="M14.1522 18.2513V18.668H14.3258L14.4481 18.5446L14.1522 18.2513ZM18.2826 14.0846L18.5785 14.378L18.6993 14.2562V14.0846H18.2826ZM14.1522 14.0846V13.668H13.7355V14.0846H14.1522ZM7.12681 18.2513V20.7513H7.96014V18.2513H7.12681ZM7.12681 20.7513C7.12681 21.0949 7.24207 21.4141 7.47474 21.6488C7.70773 21.8838 8.02595 22.0013 8.36957 22.0013V21.168C8.21753 21.168 8.1227 21.1188 8.06656 21.0621C8.0101 21.0052 7.96014 20.9077 7.96014 20.7513H7.12681ZM8.36957 22.0013H20.7609V21.168H8.36957V22.0013ZM20.7609 22.0013C21.1045 22.0013 21.4227 21.8838 21.6557 21.6488C21.8884 21.4141 22.0036 21.0949 22.0036 20.7513H21.1703C21.1703 20.9077 21.1203 21.0052 21.0639 21.0621C21.0077 21.1188 20.9129 21.168 20.7609 21.168V22.0013ZM22.0036 20.7513V7.0013H21.1703V20.7513H22.0036ZM2.99638 4.5013V17.418H3.82971V4.5013H2.99638ZM2.99638 17.418C2.99638 18.0337 3.48346 18.668 4.23913 18.668V17.8346C4.0035 17.8346 3.82971 17.6356 3.82971 17.418H2.99638ZM4.23913 18.668H14.1522V17.8346H4.23913V18.668ZM14.4481 18.5446L18.5785 14.378L17.9867 13.7913L13.8563 17.958L14.4481 18.5446ZM18.6993 14.0846V4.5013H17.8659V14.0846H18.6993ZM18.2826 13.668H14.1522V14.5013H18.2826V13.668ZM13.7355 14.0846V18.2513H14.5688V14.0846H13.7355ZM3 2.83464H18.6957V2.0013H3V2.83464Z" fill="black"/>
<path fill-rule="evenodd" clip-rule="evenodd" d="M8.03947 6.5L6.30469 6.91667V7.58333L7.79164 7.25V11.3333H6.30469V12H10.0221V11.3333H8.53512V6.5H8.03947ZM11.0134 11.0833V11.75L11.0134 11.75C11.5916 11.9167 12.1699 12.0833 12.8308 12.0833C14.5656 12.0833 15.309 11.3333 15.309 10.4167C15.309 9.08333 13.4916 8.75 11.9221 8.66667L12.0047 7.16667H15.0612V6.5H11.3438L11.1786 9.25C12.3351 9.25 14.5656 9.41667 14.5656 10.4167C14.5656 11 14.0699 11.4167 12.9134 11.4167L12.9134 11.4167C12.2525 11.3333 11.5916 11.25 11.0134 11.0833Z" fill="black"/>
</svg>
