<svg width="24" height="24" viewBox="0 0 24 24" fill="none" xmlns="http://www.w3.org/2000/svg">
<rect opacity="0.01" width="24" height="24" fill="#D8D8D8"/>
<path d="M15.1711 12.2734L15.2708 12.0441L15.0334 11.941L14.9386 12.1818L15.1711 12.2734ZM17.2031 16.7701L15.4459 12.4051L14.9821 12.5918L16.7392 16.9568L17.2031 16.7701ZM14.3752 14.9751L15.4037 12.3651L14.9386 12.1818L13.91 14.7918L14.3752 14.9751ZM15.0715 12.5027L17.5572 13.5827L17.7565 13.1241L15.2708 12.0441L15.0715 12.5027Z" fill="black"/>
<path fill-rule="evenodd" clip-rule="evenodd" d="M3.64286 8H3L4.41429 11.15H4.92857L5.91429 8.63L6.9 11.15H7.45714L8.87143 8H8.27143L7.24286 10.52L6.21429 8H5.65714L4.67143 10.52L3.64286 8ZM9.04286 8H9.68571L10.7143 10.52L11.7 8H12.2571L13.2857 10.52L14.3143 8H14.9143L13.5 11.15H12.9429L12 8.63L11.0143 11.15H10.4571L9.04286 8ZM15.1286 8H15.7714L16.8 10.52L17.7857 8H18.3429L19.3286 10.52L20.3571 8H21L19.5857 11.15H19.0286L18.0429 8.63L17.0571 11.15H16.5L15.1286 8Z" fill="black"/>
</svg>
