<svg width="108" height="37" viewBox="0 0 108 37" fill="none" xmlns="http://www.w3.org/2000/svg">
<path d="M35 18.5C35 27.6127 27.6127 35 18.5 35C9.3873 35 2 27.6127 2 18.5C2 9.3873 9.3873 2 18.5 2C27.6127 2 35 9.3873 35 18.5Z" stroke="#231F20" stroke-width="4"/>
<path d="M59 18.5C59 27.6127 51.6127 35 42.5 35C33.3873 35 26 27.6127 26 18.5C26 9.3873 33.3873 2 42.5 2C51.6127 2 59 9.3873 59 18.5Z" stroke="#231F20" stroke-width="4"/>
<path d="M82 18.5C82 27.6127 74.6127 35 65.5 35C56.3873 35 49 27.6127 49 18.5C49 9.3873 56.3873 2 65.5 2C74.6127 2 82 9.3873 82 18.5Z" stroke="#231F20" stroke-width="4"/>
<path d="M106 18.5C106 27.6127 98.6127 35 89.5 35C80.3873 35 73 27.6127 73 18.5C73 9.3873 80.3873 2 89.5 2C98.6127 2 106 9.3873 106 18.5Z" stroke="#231F20" stroke-width="4"/>
</svg>
